<?xml version="1.0" encoding="utf-8"?>
<!-- Generator: Adobe Illustrator 16.2.0, SVG Export Plug-In . SVG Version: 6.00 Build 0)  -->
<!DOCTYPE svg PUBLIC "-//W3C//DTD SVG 1.1//EN" "http://www.w3.org/Graphics/SVG/1.1/DTD/svg11.dtd">
<svg version="1.1" id="Layer_1" xmlns="http://www.w3.org/2000/svg" xmlns:xlink="http://www.w3.org/1999/xlink" x="0px" y="0px"
	 width="20px" height="160px" viewBox="0 0 20 160" enable-background="new 0 0 20 160" xml:space="preserve">
<path fill="#8A8A8A" d="M20,10.002c0-5.515-4.486-10-10-10c-5.514,0-10,4.485-10,10c0,0.775,0.092,1.53,0.26,2.256
	c-0.023,0.005-0.048,0.008-0.071,0.013l0.015,0.071c0.024-0.005,0.049-0.008,0.073-0.013c0.052,0.217,0.108,0.432,0.174,0.643
	c-0.076,0.02-0.153,0.037-0.229,0.059l0.02,0.07c0.078-0.021,0.156-0.039,0.233-0.06c1.29,4.032,5.072,6.96,9.526,6.96
	s8.237-2.928,9.526-6.96c0.078,0.021,0.156,0.038,0.232,0.06l0.02-0.07c-0.075-0.021-0.151-0.038-0.229-0.059
	c0.066-0.211,0.123-0.426,0.174-0.643c0.025,0.005,0.051,0.008,0.074,0.013l0.016-0.071c-0.024-0.005-0.049-0.008-0.071-0.013
	C19.909,11.532,20,10.777,20,10.002z M1.927,10.002c0-4.452,3.622-8.074,8.073-8.074c4.452,0,8.074,3.622,8.074,8.074
	c0,0.695-0.098,1.367-0.266,2.012c-0.887-0.06-1.691-0.053-2.273-0.028c0.165-0.594,0.214-1.276,0.214-2.039
	c0-1.093-0.41-1.967-1.076-2.632c0.116-0.375,0.271-1.211-0.155-2.279c0,0-0.754-0.239-2.459,0.902
	c-0.668-0.167-1.379-0.25-2.092-0.25c-0.784,0-1.575,0.101-2.313,0.303C5.893,4.789,5.116,5.035,5.116,5.035
	c-0.508,1.269-0.193,2.207-0.099,2.44c-0.596,0.644-0.96,1.464-0.96,2.471c0,0.761,0.087,1.442,0.298,2.035
	c-0.571-0.021-1.332-0.023-2.165,0.033C2.024,11.37,1.927,10.697,1.927,10.002z M2.209,12.086c0.84-0.056,1.604-0.052,2.175-0.03
	c0.046,0.123,0.098,0.242,0.156,0.356c-0.553,0.019-1.324,0.068-2.178,0.185C2.306,12.429,2.256,12.259,2.209,12.086z M3.94,15.319
	c0.008-0.045,0.006-0.089,0-0.113l-0.155-0.541l-0.101,0.352c-0.556-0.699-0.995-1.491-1.296-2.35
	c0.862-0.117,1.641-0.166,2.189-0.183c0.594,1.107,1.766,1.823,3.849,2.048c-0.295,0.198-0.597,0.536-0.719,1.108
	c-0.403,0.192-1.68,0.663-2.445-0.654c0,0-0.428-0.783-1.248-0.845c0,0-0.796-0.012-0.055,0.496c0,0,0.532,0.251,0.899,1.194
	c0,0,0.479,1.607,2.791,1.091v0.802C6.196,17.28,4.92,16.434,3.94,15.319z M12.35,17.725v-1.514c0-0.927-0.389-1.417-0.771-1.676
	c2.223-0.22,3.289-0.938,3.78-2.053c0.552,0.016,1.355,0.062,2.252,0.185C16.766,15.08,14.809,16.975,12.35,17.725z M17.639,12.597
	c-0.891-0.122-1.691-0.171-2.248-0.187c0.047-0.112,0.088-0.229,0.123-0.351c0.579-0.024,1.387-0.032,2.277,0.027
	C17.745,12.259,17.695,12.429,17.639,12.597z"/>
<path fill="#8DE024" d="M20,45.284c0-5.515-4.486-10-10-10c-5.514,0-10,4.485-10,10c0,0.775,0.092,1.53,0.26,2.256
	c-0.023,0.005-0.048,0.008-0.071,0.013l0.015,0.071c0.024-0.005,0.049-0.008,0.073-0.013c0.052,0.217,0.108,0.432,0.174,0.643
	c-0.076,0.02-0.153,0.037-0.229,0.059l0.02,0.07c0.078-0.021,0.156-0.039,0.233-0.06c1.29,4.032,5.072,6.96,9.526,6.96
	s8.237-2.928,9.526-6.96c0.078,0.021,0.156,0.038,0.232,0.06l0.02-0.07c-0.075-0.021-0.151-0.038-0.229-0.059
	c0.066-0.211,0.123-0.426,0.174-0.643c0.025,0.005,0.051,0.008,0.074,0.013l0.016-0.071c-0.024-0.005-0.049-0.008-0.071-0.013
	C19.909,46.814,20,46.06,20,45.284z M1.927,45.284c0-4.452,3.622-8.074,8.073-8.074c4.452,0,8.074,3.622,8.074,8.074
	c0,0.695-0.098,1.367-0.266,2.012c-0.887-0.06-1.691-0.053-2.273-0.028c0.165-0.594,0.214-1.276,0.214-2.039
	c0-1.093-0.41-1.967-1.076-2.632c0.116-0.375,0.271-1.211-0.155-2.279c0,0-0.754-0.239-2.459,0.902
	c-0.668-0.167-1.379-0.25-2.092-0.25c-0.784,0-1.575,0.101-2.313,0.303c-1.761-1.201-2.537-0.955-2.537-0.955
	c-0.508,1.269-0.193,2.207-0.099,2.44c-0.596,0.644-0.96,1.464-0.96,2.471c0,0.761,0.087,1.442,0.298,2.035
	c-0.571-0.021-1.332-0.023-2.165,0.033C2.024,46.652,1.927,45.979,1.927,45.284z M2.209,47.368c0.84-0.056,1.604-0.052,2.175-0.03
	c0.046,0.123,0.098,0.242,0.156,0.356c-0.553,0.019-1.324,0.068-2.178,0.185C2.306,47.711,2.256,47.541,2.209,47.368z M3.94,50.602
	c0.008-0.045,0.006-0.089,0-0.113l-0.155-0.541L3.684,50.3c-0.556-0.699-0.995-1.491-1.296-2.35
	c0.862-0.117,1.641-0.166,2.189-0.183c0.594,1.107,1.766,1.823,3.849,2.048c-0.295,0.198-0.597,0.536-0.719,1.108
	c-0.403,0.192-1.68,0.663-2.445-0.654c0,0-0.428-0.783-1.248-0.845c0,0-0.796-0.012-0.055,0.496c0,0,0.532,0.251,0.899,1.194
	c0,0,0.479,1.607,2.791,1.091v0.802C6.196,52.562,4.92,51.716,3.94,50.602z M12.35,53.007v-1.514c0-0.927-0.389-1.417-0.771-1.676
	c2.223-0.22,3.289-0.938,3.78-2.053c0.552,0.016,1.355,0.062,2.252,0.185C16.766,50.362,14.809,52.257,12.35,53.007z M17.639,47.879
	c-0.891-0.122-1.691-0.171-2.248-0.187c0.047-0.112,0.088-0.229,0.123-0.351c0.579-0.024,1.387-0.032,2.277,0.027
	C17.745,47.541,17.695,47.711,17.639,47.879z"/>
</svg>
