<?xml version="1.0" encoding="utf-8"?>
<!-- Generator: Adobe Illustrator 16.2.0, SVG Export Plug-In . SVG Version: 6.00 Build 0)  -->
<!DOCTYPE svg PUBLIC "-//W3C//DTD SVG 1.1//EN" "http://www.w3.org/Graphics/SVG/1.1/DTD/svg11.dtd">
<svg version="1.1" id="Layer_1" xmlns="http://www.w3.org/2000/svg" xmlns:xlink="http://www.w3.org/1999/xlink" x="0px" y="0px"
	 width="20px" height="160px" viewBox="0 0 20 160" enable-background="new 0 0 20 160" xml:space="preserve">
<g>
	<path fill="#8A8A8A" d="M10.803,9.014V8.985c-0.008,0.01-0.019,0.022-0.021,0.029H10.803z"/>
	<path fill="#8A8A8A" d="M16.254,0H3.75C1.678,0,0,1.676,0,3.753v12.492C0,18.317,1.678,20,3.75,20h12.504
		C18.323,20,20,18.317,20,16.245V3.753C20,1.676,18.325,0,16.254,0z M6.182,16.976H3.077L3.059,7.674h3.106L6.182,16.976z
		 M4.555,6.458H4.533c-1.015,0-1.671-0.7-1.671-1.575c0-0.889,0.679-1.568,1.711-1.568c1.035,0,1.67,0.679,1.688,1.568
		C6.262,5.758,5.607,6.458,4.555,6.458z M16.957,16.976h-3.136V11.92c0-1.22-0.323-2.052-1.417-2.052
		c-0.835,0-1.286,0.562-1.507,1.105c-0.077,0.195-0.097,0.464-0.097,0.736v5.267H7.651L7.635,7.674h3.146l0.021,1.311
		c0.397-0.62,1.068-1.501,2.676-1.501c1.986,0,3.479,1.298,3.479,4.09V16.976L16.957,16.976z"/>
</g>
<g>
	<path fill="#8DE024" d="M10.803,44.292v-0.029c-0.008,0.01-0.019,0.022-0.021,0.029H10.803z"/>
	<path fill="#8DE024" d="M16.254,35.278H3.75c-2.072,0-3.75,1.676-3.75,3.753v12.492c0,2.072,1.678,3.755,3.75,3.755h12.504
		c2.069,0,3.746-1.684,3.746-3.755V39.032C20,36.955,18.325,35.278,16.254,35.278z M6.182,52.254H3.077l-0.019-9.302h3.105
		L6.182,52.254z M4.555,41.736H4.533c-1.015,0-1.671-0.7-1.671-1.575c0-0.889,0.679-1.568,1.711-1.568
		c1.035,0,1.67,0.679,1.688,1.568C6.262,41.036,5.607,41.736,4.555,41.736z M16.957,52.254h-3.136v-5.055
		c0-1.22-0.323-2.052-1.417-2.052c-0.835,0-1.286,0.562-1.507,1.104c-0.077,0.195-0.097,0.465-0.097,0.736v5.267H7.651l-0.019-9.302
		h3.147l0.021,1.311c0.398-0.62,1.069-1.501,2.677-1.501c1.985,0,3.479,1.298,3.479,4.09L16.957,52.254L16.957,52.254z"/>
</g>
</svg>
