<?xml version="1.0" encoding="utf-8"?>
<!-- Generator: Adobe Illustrator 16.2.0, SVG Export Plug-In . SVG Version: 6.00 Build 0)  -->
<!DOCTYPE svg PUBLIC "-//W3C//DTD SVG 1.1//EN" "http://www.w3.org/Graphics/SVG/1.1/DTD/svg11.dtd">
<svg version="1.1" id="Layer_1" xmlns="http://www.w3.org/2000/svg" xmlns:xlink="http://www.w3.org/1999/xlink" x="0px" y="0px"
	 width="20px" height="160px" viewBox="0 0 20 160" enable-background="new 0 0 20 160" xml:space="preserve">
<g>
	<path fill="#8A8A8A" d="M20,3.796c-0.736,0.328-1.525,0.547-2.355,0.648c0.844-0.51,1.5-1.315,1.803-2.27
		c-0.791,0.468-1.671,0.812-2.605,0.993c-0.748-0.798-1.814-1.293-2.994-1.293c-2.266,0-4.104,1.835-4.104,4.103
		c0,0.319,0.037,0.632,0.106,0.934C6.44,6.739,3.414,5.106,1.394,2.624C1.04,3.229,0.836,3.935,0.836,4.686
		c0,1.425,0.726,2.68,1.825,3.415C1.988,8.08,1.356,7.895,0.803,7.587c0,0.018,0,0.035,0,0.053c0,1.989,1.414,3.644,3.289,4.023
		c-0.34,0.095-0.705,0.144-1.078,0.144c-0.267,0-0.521-0.026-0.773-0.073c0.525,1.628,2.039,2.816,3.835,2.849
		c-1.405,1.1-3.173,1.755-5.097,1.755c-0.332,0-0.66-0.018-0.979-0.058c1.814,1.167,3.973,1.845,6.291,1.845
		c7.549,0,11.674-6.251,11.674-11.673c0-0.178-0.006-0.354-0.012-0.531C18.754,5.342,19.45,4.62,20,3.796"/>
</g>
<g>
	<path fill="#8DE024" d="M19.999,39.075c-0.734,0.328-1.525,0.548-2.355,0.648c0.844-0.51,1.5-1.314,1.803-2.27
		c-0.791,0.468-1.67,0.812-2.605,0.993c-0.746-0.798-1.813-1.293-2.994-1.293c-2.266,0-4.103,1.835-4.103,4.103
		c0,0.318,0.037,0.632,0.107,0.934c-3.411-0.172-6.435-1.806-8.458-4.289c-0.354,0.607-0.557,1.311-0.557,2.063
		c0,1.425,0.725,2.679,1.825,3.415c-0.673-0.02-1.305-0.207-1.858-0.513c0,0.018,0,0.035,0,0.053c0,1.989,1.414,3.643,3.289,4.023
		c-0.34,0.095-0.705,0.144-1.078,0.144c-0.268,0-0.522-0.026-0.773-0.072c0.523,1.628,2.039,2.816,3.834,2.849
		c-1.404,1.099-3.173,1.754-5.096,1.754c-0.332,0-0.66-0.018-0.979-0.058c1.814,1.167,3.973,1.844,6.291,1.844
		c7.549,0,11.674-6.251,11.674-11.673c0-0.178-0.006-0.354-0.012-0.531C18.753,40.621,19.449,39.898,19.999,39.075"/>
</g>
</svg>
