<?xml version="1.0" encoding="utf-8"?>
<!-- Generator: Adobe Illustrator 16.2.0, SVG Export Plug-In . SVG Version: 6.00 Build 0)  -->
<!DOCTYPE svg PUBLIC "-//W3C//DTD SVG 1.1//EN" "http://www.w3.org/Graphics/SVG/1.1/DTD/svg11.dtd">
<svg version="1.1" id="Layer_1" xmlns="http://www.w3.org/2000/svg" xmlns:xlink="http://www.w3.org/1999/xlink" x="0px" y="0px"
	 width="20px" height="160px" viewBox="18.345 0 20 160" enable-background="new 18.345 0 20 160" xml:space="preserve">
<g>
	<path fill="#8A8A8A" d="M34.597,0h-12.5c-2.072,0-3.751,1.676-3.751,3.753v12.492c0,2.072,1.679,3.755,3.751,3.755h12.501
		c2.071,0,3.748-1.683,3.748-3.755V3.753C38.345,1.676,36.669,0,34.597,0z M34.085,10.769h-1.868v6.926H29.09v-6.926h-1.209V8.438
		h1.209V6.951c0-1.947,0.812-3.105,3.108-3.105h2.326V6.17h-1.353c-0.893,0-0.951,0.334-0.951,0.958l-0.003,1.31h2.124
		L34.085,10.769z"/>
</g>
<g>
	<path fill="#8DE024" d="M34.597,35.276h-12.5c-2.072,0-3.751,1.676-3.751,3.753v12.492c0,2.072,1.679,3.755,3.751,3.755h12.501
		c2.071,0,3.748-1.683,3.748-3.755V39.03C38.345,36.953,36.669,35.276,34.597,35.276z M34.085,46.045h-1.868v6.925H29.09v-6.925
		h-1.209v-2.332h1.209v-1.487c0-1.947,0.812-3.105,3.108-3.105h2.326v2.324h-1.353c-0.893,0-0.951,0.335-0.951,0.958l-0.003,1.31
		h2.124L34.085,46.045z"/>
</g>
</svg>
